<svg xmlns="http://www.w3.org/2000/svg" aria-hidden="true" style="position:absolute;width:0;height:0;overflow:hidden"><defs><symbol id="icon-instagram" viewBox="0 0 32 32"><path fill="#f4f4fd" d="M31.96 9.4c-.03-1.4-.3-2.73-.77-3.96l.03.08A8.09 8.09 0 0 0 26.54.84c-1-.4-2.18-.66-3.88-.74a104.85 104.85 0 0 0-6.69-.1h.09c-4.34 0-4.88 0-6.6.1C7.76.16 6.6.44 5.6.84A8.09 8.09 0 0 0 .92 5.52c-.4 1-.66 2.2-.74 3.88a104.77 104.77 0 0 0-.12 6.67V16c0 4.34 0 4.9.08 6.6s.36 2.86.76 3.88a8.09 8.09 0 0 0 4.68 4.68c1 .4 2.18.68 3.88.74 1.7.08 2.24.1 6.6.1 4.34 0 4.88 0 6.6-.1 1.4-.03 2.73-.3 3.96-.77l-.08.03a8.25 8.25 0 0 0 4.66-4.63l.02-.05c.4-1.02.66-2.2.74-3.88.08-1.7.08-2.26.08-6.6s0-4.88-.08-6.6zm-2.88 13.08a8.52 8.52 0 0 1-.54 2.96 5.3 5.3 0 0 1-3.04 3.04c-.56.22-1.4.48-2.98.56-1.68.06-2.2.08-6.46.08s-4.78 0-6.46-.08a8.77 8.77 0 0 1-3.02-.58l.06.02a4.94 4.94 0 0 1-1.84-1.2 4.99 4.99 0 0 1-1.19-1.8l-.01-.04a8.65 8.65 0 0 1-.54-2.96 108.54 108.54 0 0 1-.1-6.54v.08c0-4.28 0-4.8.1-6.46.06-1.58.32-2.4.54-2.98a4.9 4.9 0 0 1 1.2-1.84 5.15 5.15 0 0 1 1.84-1.2c.56-.2 1.4-.48 2.96-.54 1.7-.08 2.2-.1 6.48-.1 4.26 0 4.78.02 6.46.1a8.4 8.4 0 0 1 2.96.56c.7.24 1.34.66 1.84 1.2.54.5.94 1.12 1.2 1.82.2.56.48 1.4.54 2.98.08 1.68.1 2.2.1 6.46s0 4.76-.1 6.46z" style="fill:var(--color1, #f4f4fd)"/><path fill="#f4f4fd" d="m16.06 7.8-.4-.01a8.22 8.22 0 1 0 .42 16.43h-.02a8.22 8.22 0 1 0 0-16.44zm0 13.54a5.34 5.34 0 0 1 0-10.68 5.34 5.34 0 0 1 0 10.68zM26.52 7.46a1.92 1.92 0 0 1-3.84 0 1.92 1.92 0 0 1 3.84 0z" style="fill:var(--color1, #f4f4fd)"/></symbol><symbol id="icon-twitter" viewBox="0 0 32 32"><path fill="#f4f4fd" d="M32 6.08c-1.2.52-2.46.86-3.78 1.04 1.36-.8 2.4-2.1 2.88-3.64-1.26.76-2.66 1.3-4.16 1.6a6.58 6.58 0 0 0-11.2 6.03v-.05A18.55 18.55 0 0 1 2.27 4.23l-.03-.03a6.6 6.6 0 0 0 2 8.74l.02.02a6.45 6.45 0 0 1-3-.82l.04.02v.06a6.6 6.6 0 0 0 5.22 6.45l.04.01a6.38 6.38 0 0 1-3 .1h.04a6.64 6.64 0 0 0 6.11 4.56h.01a13.12 13.12 0 0 1-9.78 2.71H0A18.28 18.28 0 0 0 10 29h.06c12.08 0 18.68-10 18.68-18.66l-.02-.86c1.3-.94 2.38-2.06 3.25-3.35l.03-.05z" style="fill:var(--color1, #f4f4fd)"/></symbol><symbol id="icon-facebook" viewBox="0 0 32 32"><path fill="#f4f4fd" d="M21.32 5.32h2.94V.2C23.74.16 22 0 20 0c-4.2 0-7.1 2.64-7.1 7.52V12H8.24v5.68h4.66V32h5.7V17.68h4.46l.7-5.68H18.6V8.08c0-1.64.44-2.76 2.72-2.76z" style="fill:var(--color1, #f4f4fd)"/></symbol><symbol id="icon-linkedin" viewBox="0 0 32 32"><path fill="#f4f4fd" d="M32 32V20.26c0-5.74-1.24-10.16-7.94-10.16-3.24 0-5.4 1.76-6.28 3.44h-.1v-2.9h-6.36V32h6.62V21.4c0-2.8.54-5.48 4-5.48 3.4 0 3.44 3.18 3.44 5.66V32h6.6zM.52 10.64h6.64V32H.52V10.64zM3.84 0C1.72 0 0 1.72 0 3.84s1.72 3.88 3.84 3.88 3.84-1.76 3.84-3.88S5.96 0 3.84 0z" style="fill:var(--color1, #f4f4fd)"/></symbol></defs></svg>